# xmcd
#
# Track frame offsets: 
#        150
#        72528
#        195677
#
# Disc length: 4261 seconds
#
# Revision: 5
# Processed by: cddbd v1.5.2PL0 Copyright (c) Steve Scherf et al.
# Submitted via: ExactAudioCopyFreeDBPlugin 1.0
#
DISCID=2910a303
DTITLE=Anton Bruckner - Symphony N∞8  (Karajan, Preuﬂische Staatskapel
DTITLE=le)
DYEAR=1944
DGENRE=Classique
TTITLE0=Symphony N∞8 in C minor - II. Scherzo. Allegro moderato
TTITLE1=Symphony N∞8 in C minor - III. Adagio. Feierlich langsam, doch
TTITLE1=nicht schleppend
TTITLE2=Symphony N∞8 in C minor - IV. Finale. Feierlich, nicht schnell
EXTD=YEAR: 1944
EXTT0=Mono
EXTT1=Mono
EXTT2=H. von Karajans erste STEREO-Aufnahme
PLAYORDER=
